<svg height="512" viewBox="0 0 64 64" width="512" xmlns="http://www.w3.org/2000/svg"><g id="outline"><path d="m61 16h-3v-5a1 1 0 0 0 -1-1h-4a1 1 0 0 0 -1 1v5h-2v-1a1 1 0 0 0 -1-1h-4a1 1 0 0 0 -1 1v1h-7a1 1 0 0 0 -1 1v12 .083l2 24a1 1 0 0 0 1 .917h20a1 1 0 0 0 1-.917l2-24c0-.013 0-.068 0-.083v-12a1 1 0 0 0 -1-1zm-7-4h2v16h-2zm-4 6h2v10h-2zm-4-2h2v12h-2zm-4 2h2v10h-2zm-4 10v-10h2v10zm20.08 24h-18.16l-1.833-22h21.826zm1.92-24h-2v-10h2z"/><path d="m7 54h22a5.006 5.006 0 0 0 5-5v-3a2 2 0 0 0 -1.582-1.954 5.971 5.971 0 0 0 -.485-8.566 3.948 3.948 0 0 0 1.25-5.876 1.993 1.993 0 0 0 .817-1.604v-2a.985.985 0 0 0 -.081-.394c-.133-.306-3.403-7.606-15.919-7.606s-15.786 7.3-15.919 7.606a.985.985 0 0 0 -.081.394v2a1.993 1.993 0 0 0 .817 1.6 3.948 3.948 0 0 0 1.25 5.876 5.971 5.971 0 0 0 -.485 8.566 2 2 0 0 0 -1.582 1.958v3a5.006 5.006 0 0 0 5 5zm-3-27.769c.53-.996 3.805-6.231 14-6.231 10.23 0 13.459 5.194 14 6.229v1.771h-28zm0 5.769a2 2 0 0 1 2-2h24a2 2 0 0 1 0 4h-24a2 2 0 0 1 -2-2zm27.708 6.517a6.312 6.312 0 0 0 -1.643.582 4.523 4.523 0 0 1 -4.138 0 5.945 5.945 0 0 0 -2.935-.7 5.935 5.935 0 0 0 -2.932.7 4.037 4.037 0 0 1 -2.068.5 4.018 4.018 0 0 1 -2.065-.5 5.93 5.93 0 0 0 -2.927-.699 5.938 5.938 0 0 0 -2.932.7 4.033 4.033 0 0 1 -2.068.5 4.018 4.018 0 0 1 -2.065-.5 6.3 6.3 0 0 0 -1.64-.582 4 4 0 0 1 3.705-2.518h20a4 4 0 0 1 3.708 2.517zm-26.642 2.383a5.933 5.933 0 0 0 2.934.7 5.936 5.936 0 0 0 2.933-.7 4.024 4.024 0 0 1 2.067-.5 4.019 4.019 0 0 1 2.066.5 5.926 5.926 0 0 0 2.93.7 5.939 5.939 0 0 0 2.933-.7 4.036 4.036 0 0 1 2.067-.5 4.042 4.042 0 0 1 2.07.5 6.509 6.509 0 0 0 5.869 0 4.962 4.962 0 0 1 1.017-.385 3.992 3.992 0 0 1 -3.952 3.485h-20a3.992 3.992 0 0 1 -3.948-3.484 4.9 4.9 0 0 1 1.014.384zm-1.066 5.1h28v3a3 3 0 0 1 -3 3h-22a3 3 0 0 1 -3-3z"/><path d="m42 46h14a1 1 0 0 0 1-.9l1-10a1 1 0 0 0 -1-1.1h-16a1 1 0 0 0 -.995 1.1l1 10a1 1 0 0 0 .995.9zm12-10h1.9l-.8 8h-1.1zm-4 0h2v8h-2zm-4 0h2v8h-2zm-2 0v8h-1.095l-.8-8z"/><path d="m13 22h2v2h-2z"/><path d="m17 22h2v2h-2z"/><path d="m21 22h2v2h-2z"/><path d="m6 31h2v2h-2z"/><path d="m10 31h2v2h-2z"/><path d="m6 48h2v2h-2z"/><path d="m10 48h2v2h-2z"/><path d="m14 48h2v2h-2z"/></g></svg>